<svg width="20" height="24" viewBox="0 0 20 24" fill="none" xmlns="http://www.w3.org/2000/svg">
<path d="M10.1558 6.89576C9.18594 6.89576 7.68473 5.81789 6.10381 5.85685C4.01805 5.88282 2.105 7.03861 1.02891 8.86968C-1.13656 12.5448 0.470932 17.9731 2.58326 20.96C3.6195 22.4145 4.84172 24.0507 6.4625 23.9988C8.01686 23.9339 8.6014 23.0118 10.4879 23.0118C12.3611 23.0118 12.8925 23.9988 14.5398 23.9598C16.2138 23.9339 17.2766 22.4794 18.2995 21.0119C19.4819 19.3237 19.9734 17.6874 20 17.5965C19.9601 17.5835 16.7452 16.3758 16.7053 12.7396C16.6787 9.70081 19.2427 8.24634 19.3623 8.18141C17.901 6.0906 15.6558 5.85685 14.872 5.8049C12.8261 5.64907 11.1123 6.89576 10.1558 6.89576ZM13.6099 3.83098C14.4734 2.81804 15.0447 1.40253 14.8852 0C13.6497 0.0519454 12.1618 0.805154 11.2717 1.81809C10.4746 2.71415 9.78377 4.15564 9.96976 5.53219C11.3381 5.63608 12.7463 4.84391 13.6099 3.83098Z" fill="white"/>
</svg>
